# xmcd
#
# Track frame offsets: 
#        150
#        14905
#        34216
#        49872
#        64873
#        82684
#        100705
#        113760
#        130751
#        146708
#        163648
#        180130
#        195233
#        209258
#        230661
#        248635
#        265129
#        280197
#        296064
#        320966
#
# Disc length: 4545 seconds
#
# Revision: 1
# Processed by: cddbd v1.5.2PL0 Copyright (c) Steve Scherf et al.
# Submitted via: ExactAudioCopyFreeDBPlugin 1.0
#
DISCID=1f11bf14
DTITLE=Hjerterknekt - Så Langt
DYEAR=2004
DGENRE=Country
TTITLE0=Slipp Meg Inn
TTITLE1=Fri Mann
TTITLE2=Menn Av Hjertet
TTITLE3=Konge For En Kveld
TTITLE4=Veien Opp
TTITLE5=Din Sang
TTITLE6=Siste Uskyldige Sommer
TTITLE7=Kom, Kom, Kom
TTITLE8=Min Elskede
TTITLE9=Høst I Paradis
TTITLE10=Hold Meg
TTITLE11=Vinter Aleine
TTITLE12=Nå I Natt
TTITLE13=Hun Danser Aleine
TTITLE14=Stort Steg
TTITLE15=Soloppgang
TTITLE16=Vill, Vill, Vill
TTITLE17=Engel
TTITLE18=Fritt Fall
TTITLE19=Hud Mot Hud
EXTD=
EXTT0=
EXTT1=
EXTT2=
EXTT3=
EXTT4=
EXTT5=
EXTT6=
EXTT7=
EXTT8=
EXTT9=
EXTT10=
EXTT11=
EXTT12=
EXTT13=
EXTT14=
EXTT15=
EXTT16=
EXTT17=
EXTT18=
EXTT19=
PLAYORDER=
